<svg
    xmlns="http://www.w3.org/2000/svg"
    viewBox="0 0 775 775"
    id="vector">
    <g
        id="group"
        transform="translate(139.06172 103.147026)">
        <path
            id="path"
            d="M 460.2 185.5 C 438.9 142.1 398.6 108 356 86.5 C 313.2 64.8 263.7 53.4 215.9 61 C 137 73.5 60.5 131.3 38 208.9 C 38 209.8 37.8 210.6 37.3 211.5 C 36.9 212.9 36.5 214.4 36.2 215.8 C 35.7 216.8 35.2 217.8 34.8 218.9 C 34.7 219.8 34.5 220.8 34.4 221.6 C 33.5 225.7 32.4 229.8 31.7 233.9 C 30.3 241.6 30.6 249.6 27.9 256.9 C 27.7 259 27.4 261.1 27.1 263.2 C 27.1 263.5 27.1 263.7 27.1 263.9 C 26.6 268.3 26.2 272.7 25.8 277.1 C 25 286.3 24.6 295.5 24.7 304.7 C 25 322.8 27.1 340.9 31.6 358.4 C 40.3 391.7 57.1 423.2 83.6 445.7 C 101.8 461.2 123.1 471.4 146 478 C 171 485.3 197 489.4 223.1 489.5 C 274.6 489.6 326.3 475.6 368.7 445.8 C 447.1 390.7 506.2 279 460.2 185.5 Z M 390.5 324.7 C 390.2 335.7 388.8 347.4 382.7 356.8 C 376 367.3 366.2 374.1 354.6 378.6 C 330.6 388 304.2 388 278.8 387.1 C 247.6 386.1 216.6 383.7 185.4 385 C 165 385.8 141.4 387.3 122.9 376.8 C 101.4 364.7 95.2 339.5 93.1 316.6 C 91.9 303.8 91.7 291 91.3 278.1 C 90.8 265.6 89.4 253.1 90 240.6 C 90.7 228.7 92.6 216.6 98.4 206 C 103.6 196.3 110.9 188.2 119 181 C 124.8 178.6 130.7 176.4 136.8 174.6 C 165.1 174 193.3 174.6 221.6 175 C 251.8 175.4 281.7 170.1 311.8 168.4 C 330.7 167.3 353.3 167.4 368.6 180.4 C 387.1 196 388.4 224.7 388.5 247.1 C 388.5 261.1 387.7 275.2 388.4 289.2 C 388.9 301.1 390.8 312.8 390.5 324.7 Z"
            fill="#ef4823"/>
        <path
            id="path_1"
            d="M 379.2 314.4 C 378.4 301.9 377.1 289.5 377.2 277 C 377.3 262.8 378 248.6 377.1 234.4 C 376.3 222 375 207.3 368.1 196.6 C 356.9 179.1 333.7 178.4 315 179.4 C 284.8 181 254.7 186.5 224.3 186.1 C 197.2 185.8 170.2 185.2 143.1 185.6 C 142.9 185.6 142.8 185.6 142.6 185.6 C 141.2 185.6 139.8 185.6 138.5 185.7 C 137.7 185.7 136.9 185.7 136 185.7 C 136 185.8 135.9 185.8 135.9 185.9 C 134.1 186.2 132.3 186.6 130.7 187.3 C 130 187.6 129.4 187.9 128.7 188.3 C 128.4 188.2 128.1 188 127.8 187.8 C 113.6 200 103.5 214.7 101.4 234 C 99.3 252.7 102 272 102.6 290.8 C 103.2 309.8 103.6 330.3 111.4 348 C 118.3 363.6 131.5 370.8 147.9 373.2 C 158.5 374.7 169.1 374.6 179.8 374.2 C 194.5 373.6 209.2 373.4 224 373.7 C 252.6 374.3 281.3 377.7 309.8 376.1 C 332.2 374.8 364.9 370.7 375.2 347.2 C 379.8 336.9 379.9 325.4 379.2 314.4 Z M 274.5 277.3 C 274.4 278.3 274.1 279.3 273.3 280.3 C 270 284.6 264.3 287.4 259.8 290.4 C 254.8 293.8 249.7 297 244.6 300.3 C 234.5 306.9 224.5 313.6 215.2 321.2 C 213.1 322.9 210.9 322.6 209.3 321.4 C 207.8 320.7 206.8 319.2 206.6 317.1 C 205.4 291.1 203.6 265.1 203.6 239.1 C 203.6 236.1 205.5 234.3 207.8 233.6 C 209.1 232.9 210.8 232.8 212.6 233.7 C 219.3 237.3 225.8 241.3 232.5 245 C 238.8 248.6 246.1 251.2 252.2 255 C 256.1 257.5 259.9 260.1 263.8 262.6 C 265.6 263.8 267.4 265 269.3 266 C 270 266.4 270.7 266.8 271.5 267.1 C 271.7 267.2 271.8 267.2 271.8 267.2 C 276.4 268.3 278.6 275 274.5 277.3 Z"
            fill="#d6e5e5"/>
        <path
            id="path_2"
            d="M 261.7 274.5 C 257.3 271.7 253 268.7 248.6 265.9 C 242.5 262 235.4 259.4 229.1 255.9 C 224.3 253.2 219.5 250.4 214.7 247.6 C 215 267.1 216.1 286.5 217.1 306 C 224 300.9 231.2 296.1 238.5 291.4 C 243.6 288.1 248.7 284.8 253.7 281.5 C 256.2 279.8 258.7 278.1 261.2 276.4 C 261.7 276 262.2 275.6 262.8 275.2 C 262.4 274.9 262.1 274.7 261.7 274.5 Z"
            fill="#ef4823"/>
        <path
            id="path_3"
            d="M 459.9 164.6 C 434.7 124.2 393.9 93 351.2 73 C 307.9 52.8 258.3 43.5 210.9 51.7 C 129.1 65.9 51 126.4 28 207.4 C 24.7 212.9 24.2 220.5 22.8 226.6 C 21.8 230.9 21.1 235.3 20.5 239.7 C 20.4 240.1 20.4 240.6 20.3 241 C 20.2 241.3 20.1 241.5 20.1 241.8 C 19.3 246 18.6 250.2 18 254.4 C 18 254.5 17.9 254.5 17.9 254.6 C 17.4 255.8 17.3 256.9 17.5 257.8 C 16.5 265.9 15.8 274 15.2 282.1 C 14.4 293.5 14.3 305 14.9 316.4 C 16.2 338.7 20.5 360.9 28.2 381.9 C 43.5 423.7 73.7 458.4 114.3 477.2 C 137.4 487.8 163.1 493.9 188.2 497.2 C 213.7 500.5 239.7 500.3 265.2 496.6 C 316.1 489.2 363.7 466.9 401.3 431.8 C 437.7 397.9 466.3 354.2 479.4 306 C 492.7 258 486.4 207.1 459.9 164.6 Z M 368.6 445.9 C 326.2 475.7 274.5 489.7 223 489.6 C 196.9 489.5 170.9 485.4 145.9 478.1 C 123 471.4 101.7 461.3 83.5 445.8 C 57 423.3 40.2 391.8 31.5 358.5 C 26.9 341 24.9 322.9 24.6 304.8 C 24.4 295.6 24.8 286.4 25.7 277.2 C 26.1 272.8 26.5 268.4 27 264 C 27 263.8 27 263.5 27 263.3 C 27.3 261.2 27.6 259.1 27.8 257 C 30.5 249.7 30.2 241.6 31.6 234 C 32.4 229.9 33.4 225.8 34.3 221.7 C 34.5 220.9 34.6 220 34.7 219 C 35.1 218 35.6 216.9 36.1 215.9 C 36.5 214.5 36.8 213 37.2 211.6 C 37.7 210.7 38 209.8 37.9 209 C 60.5 131.3 137 73.5 215.9 61 C 263.8 53.4 313.2 64.8 356 86.5 C 398.6 108 438.8 142.2 460.2 185.5 C 506.2 279 447.1 390.7 368.6 445.9 Z"
            fill="#000000"/>
        <path
            id="path_4"
            d="M 388.4 289.3 C 387.8 275.3 388.6 261.2 388.5 247.2 C 388.4 224.8 387.1 196.2 368.6 180.5 C 353.3 167.5 330.7 167.5 311.8 168.5 C 281.7 170.2 251.8 175.5 221.6 175.1 C 193.3 174.7 165.1 174.2 136.8 174.7 C 130.7 176.4 124.8 178.6 119 181.1 C 110.9 188.3 103.6 196.4 98.4 206.1 C 92.7 216.8 90.7 228.8 90 240.7 C 89.3 253.2 90.8 265.7 91.3 278.2 C 91.8 291 91.9 303.9 93.1 316.7 C 95.3 339.6 101.5 364.8 122.9 376.9 C 141.4 387.3 165 385.9 185.4 385.1 C 216.7 383.8 247.6 386.2 278.8 387.2 C 304.2 388 330.6 388.1 354.6 378.7 C 366.1 374.2 375.9 367.4 382.7 356.9 C 388.8 347.5 390.2 335.8 390.5 324.8 C 390.8 312.8 388.9 301.1 388.4 289.3 Z M 375.3 347.2 C 365 370.7 332.3 374.8 309.9 376.1 C 281.3 377.7 252.6 374.3 224.1 373.7 C 209.4 373.4 194.6 373.6 179.9 374.2 C 169.3 374.6 158.6 374.7 148 373.2 C 131.6 370.9 118.3 363.6 111.5 348 C 103.7 330.3 103.3 309.8 102.7 290.8 C 102.1 272 99.5 252.7 101.5 234 C 103.6 214.7 113.7 200 127.9 187.8 C 128.2 188 128.5 188.2 128.8 188.3 C 129.4 187.9 130.1 187.6 130.8 187.3 C 132.5 186.6 134.2 186.2 136 185.9 C 136 185.8 136.1 185.8 136.1 185.7 C 136.9 185.7 137.7 185.7 138.6 185.7 C 140 185.6 141.4 185.6 142.7 185.6 C 142.9 185.6 143.1 185.6 143.2 185.6 C 170.3 185.2 197.3 185.7 224.4 186.1 C 254.7 186.5 284.8 180.9 315.1 179.4 C 333.8 178.4 357 179.1 368.2 196.6 C 375.1 207.4 376.4 222 377.2 234.4 C 378.1 248.6 377.4 262.8 377.3 277 C 377.2 289.5 378.5 301.9 379.3 314.4 C 379.9 325.4 379.8 336.9 375.3 347.2 Z"
            fill="#000000"/>
        <path
            id="path_5"
            d="M 271.7 267.4 C 271.6 267.4 271.5 267.3 271.4 267.3 C 270.6 267 269.9 266.6 269.2 266.2 C 267.3 265.2 265.5 264 263.7 262.8 C 259.8 260.3 256.1 257.6 252.1 255.2 C 246 251.3 238.8 248.7 232.4 245.2 C 225.8 241.5 219.2 237.5 212.5 233.9 C 210.7 232.9 209.1 233 207.7 233.8 C 205.5 234.5 203.5 236.3 203.5 239.3 C 203.5 265.3 205.3 291.3 206.5 317.3 C 206.6 319.5 207.7 320.9 209.2 321.6 C 210.8 322.9 213 323.1 215.1 321.4 C 224.4 313.8 234.4 307.1 244.5 300.5 C 249.6 297.2 254.7 293.9 259.7 290.6 C 264.2 287.6 269.9 284.7 273.2 280.5 C 274 279.5 274.3 278.5 274.4 277.5 C 278.6 275 276.4 268.3 271.7 267.4 Z M 261.1 276.3 C 258.6 278 256.1 279.7 253.6 281.4 C 248.6 284.8 243.5 288 238.4 291.3 C 231.2 296 224 300.8 217 305.9 C 216 286.5 214.9 267 214.6 247.5 C 219.4 250.2 224.2 253 229 255.8 C 235.3 259.4 242.4 261.9 248.5 265.8 C 252.9 268.6 257.2 271.7 261.6 274.4 C 261.9 274.6 262.3 274.8 262.6 275 C 262.2 275.5 261.7 275.9 261.1 276.3 Z"
            fill="#000000"/>
    </g>
</svg>
